<mxfile host="app.diagrams.net" modified="2023-11-05T09:26:10.016Z" agent="Mozilla/5.0 (Windows NT 10.0; Win64; x64) AppleWebKit/537.36 (KHTML, like Gecko) Chrome/119.0.0.0 Safari/537.36" etag="sgRnveiB9ukh1vIq8TDe" version="22.0.8" type="github">
  <diagram name="Page-1" id="y76kZZ8RueGfOdoFYcaO">
    <mxGraphModel dx="1194" dy="760" grid="1" gridSize="10" guides="1" tooltips="1" connect="1" arrows="1" fold="1" page="1" pageScale="1" pageWidth="850" pageHeight="1100" math="0" shadow="0">
      <root>
        <mxCell id="0" />
        <mxCell id="1" parent="0" />
        <mxCell id="Ip6Xh1rxo1VLBZs30uvB-12" value="" style="edgeStyle=orthogonalEdgeStyle;rounded=0;orthogonalLoop=1;jettySize=auto;html=1;" edge="1" parent="1" source="Ip6Xh1rxo1VLBZs30uvB-1" target="Ip6Xh1rxo1VLBZs30uvB-8">
          <mxGeometry relative="1" as="geometry" />
        </mxCell>
        <mxCell id="Ip6Xh1rxo1VLBZs30uvB-18" style="edgeStyle=orthogonalEdgeStyle;rounded=0;orthogonalLoop=1;jettySize=auto;html=1;entryX=0;entryY=0.5;entryDx=0;entryDy=0;" edge="1" parent="1" source="Ip6Xh1rxo1VLBZs30uvB-1" target="Ip6Xh1rxo1VLBZs30uvB-9">
          <mxGeometry relative="1" as="geometry" />
        </mxCell>
        <mxCell id="Ip6Xh1rxo1VLBZs30uvB-19" style="edgeStyle=orthogonalEdgeStyle;rounded=0;orthogonalLoop=1;jettySize=auto;html=1;entryX=0;entryY=0.5;entryDx=0;entryDy=0;" edge="1" parent="1" source="Ip6Xh1rxo1VLBZs30uvB-1" target="Ip6Xh1rxo1VLBZs30uvB-10">
          <mxGeometry relative="1" as="geometry" />
        </mxCell>
        <mxCell id="Ip6Xh1rxo1VLBZs30uvB-20" style="edgeStyle=orthogonalEdgeStyle;rounded=0;orthogonalLoop=1;jettySize=auto;html=1;entryX=0;entryY=0.5;entryDx=0;entryDy=0;" edge="1" parent="1" source="Ip6Xh1rxo1VLBZs30uvB-1" target="Ip6Xh1rxo1VLBZs30uvB-3">
          <mxGeometry relative="1" as="geometry" />
        </mxCell>
        <mxCell id="Ip6Xh1rxo1VLBZs30uvB-21" style="edgeStyle=orthogonalEdgeStyle;rounded=0;orthogonalLoop=1;jettySize=auto;html=1;entryX=0;entryY=0.5;entryDx=0;entryDy=0;" edge="1" parent="1" source="Ip6Xh1rxo1VLBZs30uvB-1" target="Ip6Xh1rxo1VLBZs30uvB-2">
          <mxGeometry relative="1" as="geometry" />
        </mxCell>
        <mxCell id="Ip6Xh1rxo1VLBZs30uvB-1" value="Employee" style="rounded=1;arcSize=10;whiteSpace=wrap;html=1;align=center;" vertex="1" parent="1">
          <mxGeometry x="190" y="270" width="100" height="40" as="geometry" />
        </mxCell>
        <mxCell id="Ip6Xh1rxo1VLBZs30uvB-22" style="edgeStyle=orthogonalEdgeStyle;rounded=0;orthogonalLoop=1;jettySize=auto;html=1;entryX=0;entryY=0.5;entryDx=0;entryDy=0;" edge="1" parent="1" source="Ip6Xh1rxo1VLBZs30uvB-2" target="Ip6Xh1rxo1VLBZs30uvB-5">
          <mxGeometry relative="1" as="geometry" />
        </mxCell>
        <mxCell id="Ip6Xh1rxo1VLBZs30uvB-23" style="edgeStyle=orthogonalEdgeStyle;rounded=0;orthogonalLoop=1;jettySize=auto;html=1;entryX=0;entryY=1;entryDx=0;entryDy=0;" edge="1" parent="1" source="Ip6Xh1rxo1VLBZs30uvB-2" target="Ip6Xh1rxo1VLBZs30uvB-6">
          <mxGeometry relative="1" as="geometry" />
        </mxCell>
        <mxCell id="Ip6Xh1rxo1VLBZs30uvB-24" style="edgeStyle=orthogonalEdgeStyle;rounded=0;orthogonalLoop=1;jettySize=auto;html=1;entryX=0;entryY=0.5;entryDx=0;entryDy=0;" edge="1" parent="1" source="Ip6Xh1rxo1VLBZs30uvB-2" target="Ip6Xh1rxo1VLBZs30uvB-4">
          <mxGeometry relative="1" as="geometry" />
        </mxCell>
        <mxCell id="Ip6Xh1rxo1VLBZs30uvB-2" value="Department" style="rounded=1;arcSize=10;whiteSpace=wrap;html=1;align=center;" vertex="1" parent="1">
          <mxGeometry x="360" y="450" width="100" height="40" as="geometry" />
        </mxCell>
        <mxCell id="Ip6Xh1rxo1VLBZs30uvB-3" value="Salary" style="ellipse;whiteSpace=wrap;html=1;align=center;" vertex="1" parent="1">
          <mxGeometry x="360" y="380" width="100" height="40" as="geometry" />
        </mxCell>
        <mxCell id="Ip6Xh1rxo1VLBZs30uvB-4" value="Attribute" style="ellipse;whiteSpace=wrap;html=1;align=center;" vertex="1" parent="1">
          <mxGeometry x="530" y="520" width="100" height="40" as="geometry" />
        </mxCell>
        <mxCell id="Ip6Xh1rxo1VLBZs30uvB-5" value="ID" style="ellipse;whiteSpace=wrap;html=1;align=center;" vertex="1" parent="1">
          <mxGeometry x="530" y="410" width="100" height="40" as="geometry" />
        </mxCell>
        <mxCell id="Ip6Xh1rxo1VLBZs30uvB-6" value="Number" style="ellipse;whiteSpace=wrap;html=1;align=center;" vertex="1" parent="1">
          <mxGeometry x="530" y="460" width="100" height="40" as="geometry" />
        </mxCell>
        <mxCell id="Ip6Xh1rxo1VLBZs30uvB-7" value="Email" style="ellipse;whiteSpace=wrap;html=1;align=center;" vertex="1" parent="1">
          <mxGeometry x="360" y="310" width="100" height="40" as="geometry" />
        </mxCell>
        <mxCell id="Ip6Xh1rxo1VLBZs30uvB-8" value="Name" style="ellipse;whiteSpace=wrap;html=1;align=center;" vertex="1" parent="1">
          <mxGeometry x="360" y="250" width="100" height="40" as="geometry" />
        </mxCell>
        <mxCell id="Ip6Xh1rxo1VLBZs30uvB-9" value="Number" style="ellipse;whiteSpace=wrap;html=1;align=center;" vertex="1" parent="1">
          <mxGeometry x="360" y="190" width="100" height="40" as="geometry" />
        </mxCell>
        <mxCell id="Ip6Xh1rxo1VLBZs30uvB-10" value="ID" style="ellipse;whiteSpace=wrap;html=1;align=center;" vertex="1" parent="1">
          <mxGeometry x="360" y="140" width="100" height="40" as="geometry" />
        </mxCell>
        <mxCell id="Ip6Xh1rxo1VLBZs30uvB-15" style="edgeStyle=orthogonalEdgeStyle;rounded=0;orthogonalLoop=1;jettySize=auto;html=1;entryX=0.05;entryY=0.7;entryDx=0;entryDy=0;entryPerimeter=0;" edge="1" parent="1" source="Ip6Xh1rxo1VLBZs30uvB-1" target="Ip6Xh1rxo1VLBZs30uvB-7">
          <mxGeometry relative="1" as="geometry" />
        </mxCell>
      </root>
    </mxGraphModel>
  </diagram>
</mxfile>
